<?xml version="1.0" standalone="no"?>
<!DOCTYPE svg PUBLIC "-//W3C//DTD SVG 1.1//EN" "http://www.w3.org/Graphics/SVG/1.1/DTD/svg11.dtd" >
<svg xmlns="http://www.w3.org/2000/svg">
<metadata></metadata>
<defs>
<font id="clio_ultra_black_itultrablack" horiz-adv-x="405" >
<font-face units-per-em="1000" ascent="750" descent="-250" />
<missing-glyph horiz-adv-x="211" />
<glyph horiz-adv-x="1000" />
<glyph horiz-adv-x="1000" />
<glyph unicode="&#xd;" horiz-adv-x="1000" />
<glyph unicode=" "  horiz-adv-x="211" />
<glyph unicode="&#x09;" horiz-adv-x="211" />
<glyph unicode="&#xa0;" horiz-adv-x="211" />
<glyph unicode="!" horiz-adv-x="312" d="M75 80q7 53 24 67.5t78 14.5q62 0 76.5 -14t7.5 -68q-6 -53 -24.5 -68.5t-79.5 -15.5t-74.5 15t-7.5 69zM96 205l60 464h176l-60 -464h-176z" />
<glyph unicode="&#x22;" horiz-adv-x="445" d="M96 419l63 230h158l-82 -230h-139zM274 419l75 230h161l-92 -230h-144z" />
<glyph unicode="#" horiz-adv-x="593" d="M63 125l11 89h105l9 76h-105l12 96h105l15 125h130l-15 -125h24l15 125h129l-15 -125h106l-12 -96h-106l-9 -76h106l-11 -89h-106l-16 -127h-129l16 127h-24l-16 -127h-130l16 127h-105zM309 214h24l9 76h-24z" />
<glyph unicode="$" horiz-adv-x="519" d="M56 12l14 113q109 -9 187 -9q42 0 46 27q2 12 -15.5 25t-45 25t-58.5 30.5t-57 39t-41 54.5t-10 74q8 68 52.5 107.5t116.5 48.5l13 106h135l-13 -105l135 -12l-13 -112q-83 7 -196 9q-20 1 -31 -7t-3 -25q5 -9 25.5 -21t46.5 -24.5t55 -32t52 -42t36 -55.5t9 -71 q-9 -66 -54.5 -105.5t-116.5 -49.5l-13 -102h-135l13 102z" />
<glyph unicode="%" horiz-adv-x="783" d="M99 507q7 56 17 87t31.5 48.5t48 22.5t75.5 5q78 0 103.5 -33t13.5 -130q-12 -94 -44.5 -129.5t-118.5 -35.5q-35 0 -55.5 3t-39.5 13t-25 28t-10 48t4 73zM138 0l467 667h108l-467 -667h-108zM220 491q-3 -21 -3.5 -29.5t1 -16.5t6 -10t13.5 -2q15 1 20 11.5t11 63.5 q6 47 3 61.5t-18 14.5q-14 0 -19.5 -14t-11.5 -62zM475 167q7 56 17 87t31.5 48.5t48 22.5t75.5 5q78 0 103.5 -33t13.5 -130q-12 -94 -44 -129t-118 -35q-29 0 -47.5 2t-36.5 8t-26 17t-15.5 29.5t-5.5 45t4 62.5zM597 151q-3 -21 -3.5 -29.5t1 -16.5t6 -10t13.5 -2 q8 0 11 1.5t7 9t6.5 22t5.5 42.5q6 47 3 61.5t-18 14.5q-14 0 -19 -13.5t-11 -62.5z" />
<glyph unicode="&#x26;" horiz-adv-x="571" d="M77 178q10 81 80 151q-54 43 -46 117l5 42q22 169 257 169q65 0 185 -17l-13 -104q-94 12 -183 12q-33 0 -47 -16t-19 -53l-4 -32q-8 -64 44 -64h32l5 44h171l-5 -44h44l-14 -113h-44l-32 -254q-134 -32 -197 -32q-124 0 -177.5 47t-41.5 147zM259 173q-6 -46 10 -63.5 t48 -17.5l15 3l22 175h-32q-25 0 -40 -14.5t-19 -49.5z" />
<glyph unicode="'" horiz-adv-x="253" d="M94 419l66 230h158l-83 -230h-141z" />
<glyph unicode="(" horiz-adv-x="330" d="M68 293q14 115 70 249t147 234l109 -87q-120 -182 -148 -396q-27 -234 52 -396l-128 -88q-66 105 -90.5 239t-11.5 245z" />
<glyph unicode=")" horiz-adv-x="330" d="M4 -103q119 171 145 396q27 214 -50 397l134 86q64 -102 86.5 -235.5t8.5 -247.5q-13 -114 -68.5 -246.5t-146.5 -235.5z" />
<glyph unicode="*" horiz-adv-x="488" d="M94 496l44 111l106 -40l14 112h132l-14 -112l112 39l20 -110l-118 -28l57 -92l-101 -77l-54 91l-78 -93l-87 79l78 90z" />
<glyph unicode="+" horiz-adv-x="544" d="M60 190l14 116h150l18 149h173l-18 -149h151l-14 -116h-151l-19 -157h-173l19 157h-150z" />
<glyph unicode="," horiz-adv-x="266" d="M40 -38q26 16 44 42q-17 8 -21 28.5t1 50.5q6 53 22.5 66.5t77.5 13.5q60 0 72 -13.5t6 -66.5q-13 -106 -160 -184z" />
<glyph unicode="-" d="M80 206l17 141h301l-17 -141h-301z" />
<glyph unicode="." horiz-adv-x="267" d="M58 81q7 53 23.5 67t78.5 14q61 0 75 -13.5t7 -67.5q-6 -53 -23.5 -69t-78.5 -16t-74.5 15.5t-7.5 69.5z" />
<glyph unicode="/" horiz-adv-x="453" d="M11 -102l327 757h180l-329 -757h-178z" />
<glyph unicode="0" horiz-adv-x="577" d="M94 273q11 88 24.5 137t43 83.5t74 46t118.5 11.5q98 0 142 -24.5t54.5 -86.5t-5.5 -167q-11 -87 -24.5 -137t-42.5 -85t-74 -47.5t-119 -12.5q-99 0 -143 25t-54 87.5t6 169.5zM269 273q-7 -59 -9.5 -89.5t1 -52t12.5 -27.5t28 -6q35 0 47.5 31t26.5 144q14 112 8.5 143 t-40.5 31t-47.5 -31t-26.5 -143z" />
<glyph unicode="1" horiz-adv-x="384" d="M72 418l11 123l295 -1l-65 -540h-180l54 418h-115z" />
<glyph unicode="2" horiz-adv-x="504" d="M65 4l13 87q35 41 76.5 87.5t66.5 74t48.5 55.5t35 48t13.5 35q4 36 -26 36q-28 0 -89 -0.5t-95 -0.5l13 109l174 4q108 3 161.5 -28t42.5 -121q-5 -38 -31.5 -76t-87 -100t-87.5 -94h168l-14 -116h-382z" />
<glyph unicode="3" horiz-adv-x="518" d="M32 -114l13 109q25 0 76 -1t77 -1q44 0 65.5 15t25.5 52l4 31q8 64 -40 64h-141l13 111h141q48 0 56 61l5 46q4 31 -20 42.5t-56 11.5l-153 -2l13 109l176 3q57 0 93 -5t70.5 -20.5t48 -50.5t6.5 -90l-6 -46q-8 -68 -69 -112q48 -57 41 -121l-5 -36q-12 -97 -72.5 -134.5 t-193.5 -37.5h-41q-17 0 -62.5 1t-64.5 1z" />
<glyph unicode="4" horiz-adv-x="630" d="M28 78l11 86l291 375h252l-43 -344h90l-14 -117h-90l-23 -185h-176l23 185h-321zM237 195h124l30 204z" />
<glyph unicode="5" horiz-adv-x="515" d="M47 -115l14 107h143q51 0 70.5 14t24.5 56l4 34q5 39 -5 52t-39 13h-176l47 378h377l-15 -118h-202l-18 -149q109 -2 133 -6q59 -13 73 -67q9 -37 1 -101l-6 -49q-12 -92 -81 -128.5t-208 -36.5z" />
<glyph unicode="6" horiz-adv-x="579" d="M86 168q40 320 44 320q20 89 79.5 128.5t184.5 39.5q93 0 184 -12l-14 -112q-76 6 -184 6q-47 -1 -59 -23.5t-22 -104.5l-1.5 -10.5t-1 -9.5t-1.5 -11q53 8 61 8q124 0 167.5 -41.5t32.5 -128.5l-5 -42q-24 -186 -254 -186q-121 0 -171 46.5t-40 132.5zM269 166 q-4 -34 6.5 -47.5t35.5 -13.5q15 0 25.5 5.5t16.5 18.5t8.5 22t5 28t3.5 26q6 33 0.5 56t-28.5 23q-24 0 -59 -6z" />
<glyph unicode="7" horiz-adv-x="469" d="M58 418l13 119h437l-197 -646h-180l165 527h-238z" />
<glyph unicode="8" horiz-adv-x="582" d="M73 166l4 36q9 75 79 124q-51 45 -42 117l4 37q7 52 28 87.5t55.5 53.5t72 25t88.5 8q54 0 91 -6t70 -23t46.5 -53t7.5 -91l-5 -37q-8 -68 -70 -117q58 -49 48 -124l-4 -36q-11 -92 -73.5 -134.5t-176.5 -42.5q-128 0 -181.5 38.5t-41.5 137.5zM254 167q-8 -63 40 -63h14 q48 0 56 64l4 32q5 39 -5.5 53t-35.5 14h-14q-25 0 -37.5 -16t-17.5 -52zM288 445q-8 -63 40 -63h14q48 0 56 64l4 32q5 39 -5 52.5t-36 13.5h-14q-25 0 -38 -15.5t-17 -51.5z" />
<glyph unicode="9" horiz-adv-x="560" d="M49 -116l14 112q77 -6 184 -6q11 0 20 1.5t16 3t12 6.5t9 8.5t7 13t5 15.5t4.5 21.5t3.5 24.5t3.5 30.5t4.5 34.5q-56 -8 -61 -8q-124 0 -167.5 41.5t-32.5 128.5l5 42q22 186 254 186q121 0 171 -46.5t40 -132.5q-40 -320 -45 -320q-19 -88 -78.5 -128t-184.5 -40 q-93 0 -184 12zM261 355q-9 -43 -7 -77t30 -34q26 0 60 6l14 112q4 34 -7 47.5t-36 13.5t-37 -15.5t-17 -52.5z" />
<glyph unicode=":" horiz-adv-x="298" d="M64 81q7 53 23.5 67t78.5 14q61 0 75 -13.5t7 -67.5q-6 -53 -23.5 -69t-78.5 -16t-74.5 15.5t-7.5 69.5zM98 356q7 53 24 67t78 14q60 0 74.5 -14t7.5 -67q-6 -54 -23.5 -70t-78.5 -16t-74.5 16t-7.5 70z" />
<glyph unicode=";" horiz-adv-x="303" d="M49 -38q26 16 44 42q-17 8 -21 28.5t1 50.5q6 53 22.5 66.5t77.5 13.5q60 0 72 -13.5t6 -66.5q-13 -106 -160 -184zM105 356q7 53 24 67t78 14t75 -14t7 -67q-6 -54 -23.5 -70t-78.5 -16t-74.5 16t-7.5 70z" />
<glyph unicode="&#x3c;" horiz-adv-x="579" d="M59 208l9 74l511 191l-17 -133l-271 -95l247 -96l-16 -132z" />
<glyph unicode="=" horiz-adv-x="566" d="M77 116l14 117h442l-14 -117h-442zM95 261l14 115h442l-14 -115h-442z" />
<glyph unicode="&#x3e;" horiz-adv-x="583" d="M62 16l17 133l268 96l-246 94l17 134l464 -192l-9 -74z" />
<glyph unicode="?" horiz-adv-x="512" d="M90 78q6 52 23 66.5t76 14.5t73 -14t7 -67q-6 -51 -24 -66.5t-76 -15.5q-59 0 -72 15t-7 67zM108 573l13 109h150q52 0 84 -2t71 -11t59.5 -26t32.5 -49.5t6 -79.5l-2 -23q-23 -176 -226 -176l-14 -115h-173l28 230h145q48 0 56 62l2 16q3 24 0 38t-16.5 19.5t-24 6.5 t-37.5 1h-154z" />
<glyph unicode="@" horiz-adv-x="721" d="M89 288q10 78 22 129t36 97.5t62 72t97 40.5t142 15q90 0 147 -16.5t87 -51.5t36.5 -90t-2.5 -132q-17 -134 -61.5 -187t-122.5 -53q-33 0 -60 17t-39 42q-38 -31 -88 -34q-57 -2 -80 36.5t-13 121.5q6 51 15 84t27.5 60.5t49.5 40t77 12.5q47 0 137 -16l-39 -264 q-3 -15 5 -23t17 -8q27 0 42.5 41t21.5 91q13 88 7.5 141.5t-44 76.5t-126.5 23q-48 0 -81.5 -5.5t-59 -20.5t-41.5 -34t-28 -53t-19 -71t-14 -94q-12 -104 29 -145t145 -41h105q-8 -63 -11 -89h-126q-152 0 -211.5 67t-40.5 220zM354 308q-8 -68 -3 -82q10 -29 74 0l29 182 q-20 2 -43 2q-26 0 -38 -23t-19 -79z" />
<glyph unicode="A" horiz-adv-x="667" d="M1 0l268 667h273l112 -667h-175l-28 177h-206l-65 -177h-179zM297 302h134l-38 246z" />
<glyph unicode="B" horiz-adv-x="617" d="M71 0l82 668h213q50 0 84 -2.5t71.5 -13t58 -28.5t32 -51.5t5.5 -79.5l-5 -43q-8 -66 -70 -111q22 -26 33 -61.5t8 -63.5l-5 -40q-12 -100 -79.5 -137t-214.5 -37h-213zM266 110h35q44 0 67 16t28 55l4 34q4 32 -7 43.5t-35 11.5h-72zM301 398h72q50 0 56 55l4 32 q6 46 -12 59t-65 13h-35z" />
<glyph unicode="C" horiz-adv-x="608" d="M86 303q9 77 19 128t26.5 96.5t38 72t55 46t77 27t103.5 7.5q125 3 235 -12l-13 -103q-156 8 -228 3q-62 -5 -79 -43t-34 -181q-3 -29 -5 -45l-3 -25q-13 -104 9 -137t90 -33q101 0 193 7l-11 -96q-123 -23 -215 -23q-41 0 -70.5 2t-59 7.5t-49.5 15.5t-37.5 26 t-27.5 39.5t-16 55t-5 72.5t7 93z" />
<glyph unicode="D" horiz-adv-x="673" d="M71 0l82 671l275 -2q44 0 75.5 -4t60 -13t47 -26t32 -42t19 -61t5 -83t-8.5 -109q-13 -103 -33 -166.5t-57 -100.5t-85.5 -50.5t-125.5 -13.5h-286zM269 115l88 -1q58 1 78 38q17 31 32 153q1 6 2 17l1 9q10 79 12 123t-6 68.5t-22 31t-42 6.5h-89z" />
<glyph unicode="E" horiz-adv-x="595" d="M71 0l82 668h471l-15 -120h-289l-18 -148h265l-15 -121h-265l-20 -160h289l-14 -119h-471z" />
<glyph unicode="F" horiz-adv-x="577" d="M71 0l81 667h476l-14 -118h-292l-19 -151h250l-14 -119h-250l-34 -279h-184z" />
<glyph unicode="G" horiz-adv-x="614" d="M87 302q9 77 19 128t26.5 96.5t38 72t55 46t77 27t103.5 7.5q125 3 235 -12l-13 -105q-67 5 -228 5q-60 0 -77.5 -42t-37.5 -205l-1.5 -7.5t-1 -6.5t-0.5 -8l-3 -25q-13 -104 9 -137t90 -33h20l16 130h-88l13 104h269l-39 -321q-95 -25 -224 -25q-41 0 -70.5 2t-59 7.5 t-49.5 15.5t-37.5 26t-27.5 39.5t-16 55t-5 72.5t7 93z" />
<glyph unicode="H" horiz-adv-x="689" d="M71 0l82 668h185l-34 -269h175l34 269h185l-82 -668h-185l34 283h-175l-34 -283h-185z" />
<glyph unicode="I" horiz-adv-x="325" d="M71 0l81 667h184l-81 -667h-184z" />
<glyph unicode="J" horiz-adv-x="375" d="M26 -9l13 107q61 0 93 8.5t35 37.5l65 524h178l-65 -527q-12 -92 -61 -124.5t-154 -28.5z" />
<glyph unicode="K" horiz-adv-x="657" d="M71 0l82 668h183l-34 -272h22l195 272h197l-236 -323l162 -345h-194l-135 281h-25l-34 -281h-183z" />
<glyph unicode="L" horiz-adv-x="552" d="M71 0l81 667h184l-67 -548h274l-14 -119h-458z" />
<glyph unicode="M" horiz-adv-x="918" d="M71 0l82 668h228l109 -336l194 336h242l-82 -668h-175l54 443l-193 -345h-133l-101 343l-54 -441h-171z" />
<glyph unicode="N" horiz-adv-x="744" d="M73 0l82 668h215l160 -406l49 406h175l-82 -668h-196l-188 445l-54 -445h-161z" />
<glyph unicode="O" horiz-adv-x="670" d="M99 333q9 75 18.5 123t26 89.5t37 64.5t54.5 39.5t76.5 22t104.5 5.5q63 0 105.5 -6t72.5 -22.5t45 -39.5t20.5 -65t3 -89.5t-11.5 -121.5q-9 -75 -18.5 -123t-25.5 -89.5t-37 -64t-55 -39t-77.5 -22t-106.5 -5.5q-62 0 -104 6t-71.5 23t-44.5 40t-20.5 65t-3 89 t11.5 120zM280 333q-5 -40 -7.5 -64t-4.5 -50.5t-1 -41t4 -29.5t8.5 -21.5t15 -12.5t21.5 -8t29 -2q66 0 87 39.5t39 189.5q14 95 12.5 146.5t-18.5 68t-63 16.5q-64 0 -83.5 -40.5t-38.5 -190.5z" />
<glyph unicode="P" horiz-adv-x="635" d="M71 0l81 667h273q56 0 98 -8t75.5 -26.5t48.5 -54t9 -85.5l-9 -75q-9 -68 -65 -114.5t-134 -58.5q-24 -4 -163 -4l-29 -241h-185zM299 357h86q35 0 55.5 12t25.5 49l9 74q5 38 -13 50.5t-52 12.5h-86z" />
<glyph unicode="Q" horiz-adv-x="665" d="M92 333q9 75 18.5 123t26 89.5t37.5 64.5t55 39.5t77 22t105 5.5q54 0 92 -5t67.5 -14.5t46.5 -29.5t27 -43.5t11.5 -63t-1 -82t-10.5 -106.5q-17 -140 -41.5 -209t-77.5 -101l42 -19l-67 -121l-235 109q-94 7 -135 40t-48 106.5t10 194.5zM273 333q-7 -54 -9.5 -83 t-3 -59.5t3.5 -43.5t13.5 -25t24 -15t38.5 -3q65 0 85.5 39t38.5 190q7 55 10 85.5t3 60.5t-4 43t-13.5 24.5t-24.5 14.5t-38 3q-66 0 -85.5 -40t-38.5 -191z" />
<glyph unicode="R" horiz-adv-x="651" d="M71 0l81 667h275q56 0 98 -8t75.5 -26.5t48.5 -54t9 -85.5l-9 -75q-9 -73 -83 -129l18 -289h-187l-13 241h-99l-29 -241h-185zM299 357h86q34 0 54.5 12t25.5 49l9 74q6 38 -12 50.5t-52 12.5h-86z" />
<glyph unicode="S" horiz-adv-x="595" d="M71 1l14 115q155 -8 241 -8q45 0 52 58q3 26 -27 51.5t-74.5 50.5t-88.5 54t-72 73t-21 97q12 95 78 141.5t168 46.5q133 0 248 -9l-14 -116q-164 8 -241 8q-46 0 -52 -47q-2 -16 19.5 -35.5t55.5 -37.5t72.5 -45t71 -55.5t51 -71.5t12.5 -92q-12 -94 -78.5 -141.5 t-167.5 -47.5q-60 0 -247 11z" />
<glyph unicode="T" horiz-adv-x="605" d="M83 549l14 118h559l-14 -118h-187l-67 -549h-186l67 549h-186z" />
<glyph unicode="U" horiz-adv-x="694" d="M104 333l42 336h184l-42 -336q-7 -53 -9.5 -82.5t-3.5 -59.5t3.5 -43.5t14 -25t24 -15t37.5 -3.5q66 0 87.5 39.5t39.5 189.5l42 336h182q0 -7 -10 -86t-20.5 -163t-10.5 -87q-9 -75 -18.5 -123t-25.5 -89.5t-37 -64t-56 -39t-79 -22t-108 -5.5q-54 0 -93 5t-68 15 t-46.5 30t-27.5 44t-12 63t0.5 81t10.5 105z" />
<glyph unicode="V" horiz-adv-x="668" d="M84 667h179l86 -548l213 548h181l-261 -667h-294z" />
<glyph unicode="W" horiz-adv-x="950" d="M95 0l14 667h175l-21 -547l191 547h206l23 -547l133 547h176l-164 -667h-311l-6 403l-128 -403h-288z" />
<glyph unicode="X" horiz-adv-x="627" d="M13 0l246 337l-158 330h194l82 -171l126 171h194l-238 -328l165 -339h-194l-90 186l-132 -186h-195z" />
<glyph unicode="Y" horiz-adv-x="617" d="M76 668h199l72 -279l145 279h199l-275 -476l-23 -192h-186l23 192z" />
<glyph unicode="Z" horiz-adv-x="612" d="M34 0l11 96l368 453h-305l15 120h517l-13 -100l-361 -451h314l-14 -118h-532z" />
<glyph unicode="[" horiz-adv-x="354" d="M43 -127l112 911h272l-14 -110h-97l-84 -687h97l-14 -114h-272z" />
<glyph unicode="\" horiz-adv-x="448" d="M104 654h180l141 -756h-178z" />
<glyph unicode="]" horiz-adv-x="349" d="M2 -127l14 114h96l84 687h-96l14 110h273l-112 -911h-273z" />
<glyph unicode="^" horiz-adv-x="512" d="M76 361l193 303h153l116 -303h-169l-43 146l-79 -146h-171z" />
<glyph unicode="_" horiz-adv-x="601" d="M43 -92l12 92h495l-12 -92h-495z" />
<glyph unicode="`" horiz-adv-x="353" d="M144 723l118 57l86 -191l-115 -57z" />
<glyph unicode="a" horiz-adv-x="540" d="M60 165q0 52 7 117q14 120 62 173t147 53q36 0 113.5 -10.5t146.5 -28.5l-54 -472h-137l-2 49q-20 -24 -55.5 -39.5t-74.5 -15.5q-46 0 -77.5 13.5t-47.5 39.5t-22 54.5t-6 66.5zM231 169q0 -36 7.5 -53.5t22 -17.5t30.5 8t40 25l37 279q-46 6 -69 3q-48 -6 -62 -149 q-6 -90 -6 -95z" />
<glyph unicode="b" horiz-adv-x="550" d="M62 10l82 668h175l-24 -192q133 45 196 -7.5t45 -195.5q-8 -68 -17 -109t-26.5 -80t-44.5 -59t-69.5 -31.5t-104.5 -11.5q-77 0 -212 18zM249 105h36q35 0 48 35.5t25 133.5q9 62 5 85t-31 23q-19 0 -50 -10z" />
<glyph unicode="c" horiz-adv-x="531" d="M76 227q9 70 17.5 112t24.5 78.5t41 54.5t61.5 28t91.5 10q129 -5 224 -20l-13 -107q-180 13 -192 13q-39 0 -51.5 -30t-25.5 -142q-8 -71 8.5 -95t59.5 -24q57 0 172 9l-11 -96q-115 -27 -213 -27q-36 0 -61 2t-49.5 8t-39.5 16.5t-27 28t-17 42.5t-5.5 59.5t5.5 79.5z " />
<glyph unicode="d" horiz-adv-x="544" d="M79 256l3 26q18 145 93 198t192 2l24 195h176l-83 -677h-148l-3 41q-4 -6 -16 -16t-38 -20.5t-54 -10.5q-93 0 -128 62t-18 200zM260 279q-15 -119 -6.5 -138.5t70.5 -2.5l30 242q-19 6 -40 6q-19 0 -31 -19.5t-15.5 -37t-7.5 -50.5z" />
<glyph unicode="e" horiz-adv-x="544" d="M66 148q0 44 7 103q10 80 23.5 126.5t42.5 79t74.5 44t119.5 11.5q119 0 165.5 -34.5t46.5 -119.5q0 -18 -1 -31t-10.5 -37.5t-26.5 -40t-52.5 -28t-85.5 -12.5l-135 -1q-2 -17 -2 -48q0 -26 4.5 -42t15 -22.5t19.5 -8t25 -1.5q95 0 190 12l-7 -87q-99 -20 -220 -20 q-107 0 -150 36t-43 121zM247 302h114q6 0 10 1.5t6.5 5t4 6t2 8.5t0.5 9v10v9q0 41 -12.5 54.5t-44.5 13.5q-41 0 -56 -25t-24 -92z" />
<glyph unicode="f" horiz-adv-x="424" d="M15 -185l4 64q38 7 54 34.5t22 77.5l47 405h-72l8 95h72q8 63 19.5 98t37.5 56t61 27t98 6q54 0 131 -11l-7 -84h-118q-30 0 -38 -13.5t-15 -78.5h115l-8 -95h-114l-56 -440q-10 -75 -55 -112t-106 -37q-23 0 -80 8z" />
<glyph unicode="g" horiz-adv-x="528" d="M65 -161q0 3 15 47t16 46q105 -20 168 -20q13 0 23 7t15.5 15.5t9.5 25t5.5 26.5t3.5 29.5t3 24.5h-5h-36.5t-36.5 1t-38.5 3.5t-34 7t-33 11.5t-26 18t-22.5 25t-12.5 33.5t-5.5 43.5q0 136 41 234q27 63 76 81t157 18q79 0 190 -19l-61 -536q-17 -146 -207 -146 q-101 0 -205 24zM239 195q0 -39 15 -50.5t55 -11.5q8 0 15 1h6l38 285q-45 5 -66.5 -2.5t-33.5 -32.5q-13 -27 -21 -85t-8 -104z" />
<glyph unicode="h" horiz-adv-x="571" d="M62 0l82 670h176l-23 -189q54 26 118 26q80 0 114.5 -33.5t26.5 -99.5l-45 -374h-177l43 355q7 63 -93 19l-45 -374h-177z" />
<glyph unicode="i" horiz-adv-x="303" d="M60 0l61 499h179l-61 -499h-179zM132 630q7 57 24 71.5t82 14.5t79 -14t7 -72q-7 -55 -26 -72t-81 -17q-64 0 -78 17t-7 72z" />
<glyph unicode="j" horiz-adv-x="298" d="M-19 -168l10 80q33 5 45 17t15 32l66 539h179l-65 -525q-5 -46 -20 -76.5t-38 -46.5t-49.5 -22t-61.5 -6q-18 0 -81 8zM128 630q7 57 23.5 71.5t81.5 14.5t79.5 -14t7.5 -72q-7 -55 -26 -72t-82 -17q-64 0 -77.5 16.5t-6.5 72.5z" />
<glyph unicode="k" horiz-adv-x="619" d="M62 0l82 669h175l-40 -326h44l146 225h182l-186 -283l142 -285h-185l-114 230h-43l-28 -230h-175z" />
<glyph unicode="l" horiz-adv-x="312" d="M78 145l65 523h179l-67 -539v-20t11 -16t34 -11l-10 -81q-63 -9 -78 -9q-73 0 -108.5 33t-25.5 120z" />
<glyph unicode="m" horiz-adv-x="836" d="M62 0l61 499h150l9 -37q2 1 11 6t13 7.5t14 7.5t16.5 7.5t17 6t19 5.5t19.5 3.5t21 1.5q56 0 110 -47q4 2 38.5 17.5t60 22.5t55.5 7q79 0 115.5 -33.5t28.5 -98.5l-46 -375h-179l42 350q3 19 -1.5 29t-20 9.5t-22.5 -2.5t-32 -10q-5 -1 -7 -2q-6 -50 -21 -180t-23 -194 h-179l43 357q2 16 -5.5 23t-21.5 5t-26.5 -5.5t-27.5 -8.5q-6 -2 -8 -3l-45 -368h-179z" />
<glyph unicode="n" horiz-adv-x="571" d="M62 0l61 499h150l11 -35q3 1 16 9t23 12.5t25 11t31.5 9.5t33.5 3q66 0 109 -31.5t35 -97.5l-46 -380h-178l43 356q2 18 -6.5 25.5t-23.5 5.5t-30 -7t-30 -13l-45 -367h-179z" />
<glyph unicode="o" horiz-adv-x="566" d="M80 250q10 82 24 128t43.5 77.5t75 42.5t121.5 11q102 0 148 -22.5t58 -80t-4 -156.5q-10 -80 -23.5 -126t-43 -78t-76 -43.5t-123.5 -11.5q-101 0 -146.5 22.5t-57 80.5t3.5 156zM255 250q-13 -94 -7 -123t46 -29q41 0 54.5 27.5t25.5 124.5q13 98 5.5 126.5t-48.5 28.5 q-39 0 -51 -27t-25 -128z" />
<glyph unicode="p" horiz-adv-x="547" d="M40 -175l83 677h148l3 -41q4 6 16 16t38 20.5t54 10.5q93 0 127.5 -62t18.5 -200l-3 -26q-18 -145 -93.5 -198.5t-191.5 -1.5l-24 -195h-176zM252 122q20 -6 41 -6q19 0 31 19.5t15.5 37t7.5 50.5q14 119 5.5 138t-70.5 3z" />
<glyph unicode="q" horiz-adv-x="550" d="M73 220q8 68 16.5 109t26 80t45 59t70 31.5t104.5 11.5q77 0 212 -18l-82 -668h-175l24 192q-133 -45 -196 7.5t-45 195.5zM251 229q-10 -62 -6 -85t31 -23q20 0 51 10l32 267h-36q-35 0 -47.5 -35t-24.5 -134z" />
<glyph unicode="r" horiz-adv-x="413" d="M62 0l61 500h156l7 -40q1 0 15.5 8.5t24 12.5t28 11t42.5 12t53 8l-14 -116q-20 -1 -43.5 -7t-38 -11.5t-39 -15t-30.5 -11.5l-43 -351h-179z" />
<glyph unicode="s" horiz-adv-x="499" d="M61 11l13 104q102 -8 176 -8q40 0 44 25q2 13 -21.5 27t-57.5 30t-67.5 37t-54.5 56t-15 79q9 74 64.5 111t141.5 37q44 0 96 -3.5t82 -7.5l30 -3l-12 -103q-79 6 -184 8q-19 1 -30 -6.5t-3 -23.5q5 -9 31.5 -23t57.5 -30.5t61.5 -39t48.5 -57.5t13 -77 q-9 -72 -65.5 -109t-141.5 -37q-44 0 -95.5 3.5t-81.5 7.5z" />
<glyph unicode="t" horiz-adv-x="440" d="M66 392q1 9 7 48t8 60h104q2 18 7.5 57t7.5 57h174l-14 -114h107q-2 -19 -7 -55t-7 -53h-107l-28 -225q-5 -42 12 -55.5t63 -13.5q5 0 16.5 0.5t18.5 0.5q-2 -16 -5.5 -48.5t-5.5 -48.5q-55 -11 -94 -11q-104 0 -143 30.5t-39 95.5q0 29 4 56l26 219h-105z" />
<glyph unicode="u" horiz-adv-x="571" d="M73 119l47 380h178l-44 -353q-2 -18 6.5 -25.5t24 -5.5t30.5 7t30 13l45 364h179l-61 -499h-150l-12 35q-3 -1 -16 -9t-23 -12.5t-25 -11t-31.5 -9.5t-33.5 -3q-66 0 -109 31.5t-35 97.5z" />
<glyph unicode="v" horiz-adv-x="552" d="M71 500h183l33 -389l129 389h181l-182 -500h-283z" />
<glyph unicode="w" horiz-adv-x="777" d="M82 500h172l-3 -366l130 366h125l44 -364l81 364h173l-127 -500h-232l-34 239l-90 -239h-228z" />
<glyph unicode="x" horiz-adv-x="512" d="M20 0l180 248l-116 251h183l45 -112l65 112h183l-174 -251l117 -248h-179l-47 103l-73 -103h-184z" />
<glyph unicode="y" horiz-adv-x="560" d="M80 500h179l13 -391l171 391h178l-264 -579q-50 -110 -163 -110q-58 0 -111 39l35 70l36 -12q18 -4 25 3q8 8 49 79l5 10h-113z" />
<glyph unicode="z" horiz-adv-x="477" d="M36 0l10 84l230 304h-189l14 113h399l-11 -86l-230 -302h197l-13 -113h-407z" />
<glyph unicode="{" horiz-adv-x="376" d="M46 300l7 58q42 26 59 49t21 63l20 164q7 52 24.5 82.5t64.5 49t128 18.5h77l-14 -109h-77q-14 0 -18 -8t-7 -33l-20 -164q-10 -84 -74 -142q50 -52 40 -138l-20 -163q-4 -25 -1.5 -33.5t16.5 -8.5h77l-14 -112h-77q-118 0 -153.5 38t-25.5 116l20 163q4 39 -7 61.5 t-46 48.5z" />
<glyph unicode="|" horiz-adv-x="263" d="M36 -183l115 937h154l-115 -937h-154z" />
<glyph unicode="}" horiz-adv-x="392" d="M1 -127l14 112h77q14 0 18.5 8t7.5 34l20 163q11 87 74 140q-49 60 -40 140l20 164q4 22 1 31.5t-17 9.5h-77l14 109h77q120 0 155.5 -35.5t25.5 -114.5l-20 -164q-5 -41 5.5 -63.5t44.5 -49.5l-6 -55q-41 -27 -57 -49.5t-21 -62.5l-20 -163q-10 -79 -55 -116.5 t-164 -37.5h-77z" />
<glyph unicode="~" horiz-adv-x="531" d="M80 268q86 69 145 69q33 0 75 -8t56 -8q25 0 58 11.5t53 29.5l53 -84q-30 -39 -81 -59.5t-91 -20.5q-27 0 -61 14.5t-50 14.5q-44 0 -101 -50z" />
<glyph unicode="&#xa2;" horiz-adv-x="548" d="M90 296q19 155 56.5 214t139.5 68l10 75h154l-10 -79q30 -2 109 -15l-13 -108q-154 13 -190 13q-39 0 -51.5 -29.5t-26.5 -141.5q-9 -75 10.5 -97t70.5 -22q56 0 159 9l-12 -96q-77 -18 -119 -22l-9 -74h-154l9 71q-87 9 -118 57.5t-15 176.5z" />
<glyph unicode="&#xa3;" horiz-adv-x="534" d="M36 0l13 106q40 2 54.5 17.5t19.5 61.5l14 112h-55l12 99h55l5 42q15 119 63.5 169t161.5 50q95 0 178 -22l-11 -91q0 1 -28.5 2.5t-64 3.5t-49.5 2q-41 0 -51 -14t-17 -73l-9 -69h173l-12 -99h-173l-17 -138q-4 -32 -9 -47h209l-13 -112h-449z" />
<glyph unicode="&#xa5;" horiz-adv-x="622" d="M105 668h180l85 -220l140 220h180l-234 -364h107l-13 -108h-419l13 108h103zM117 68l13 107h419l-13 -107h-125l-8 -68h-175l8 68h-119z" />
<glyph unicode="&#xa9;" horiz-adv-x="785" d="M80 325q18 143 127 240t264 97q156 0 242.5 -97.5t68.5 -239.5q-17 -140 -127.5 -237t-266.5 -97q-155 0 -240 96.5t-68 237.5zM188 325q-12 -104 48.5 -175.5t164.5 -71.5q107 0 186.5 71.5t91.5 175.5q13 105 -48.5 177t-168.5 72q-104 0 -182.5 -72t-91.5 -177z M283 309q7 56 14.5 86.5t24 54.5t43.5 32.5t71 8.5q82 -3 143 -12l-8 -69q-109 7 -123 7q-25 0 -33 -19t-17 -91q-6 -46 5.5 -61.5t38.5 -15.5q43 0 111 6l-7 -62q-75 -17 -137 -17q-55 0 -82 9.5t-39.5 42.5t-4.5 100z" />
<glyph unicode="&#xad;" d="M80 206l17 141h301l-17 -141h-301z" />
<glyph unicode="&#xae;" horiz-adv-x="492" d="M103 483q10 82 73 138t153 56q88 0 137.5 -56t39.5 -138t-73 -137.5t-152 -55.5q-90 0 -139 55t-39 138zM153 482q-8 -63 31.5 -107.5t101.5 -44.5q61 0 112.5 44.5t59.5 107.5q7 62 -33.5 107t-101.5 45q-62 0 -112.5 -44.5t-57.5 -107.5zM218 381l24 195h85 q33 0 51 -11.5t15 -40.5l-3 -21q-2 -17 -23 -38l5 -84h-54l-5 71h-32l-9 -71h-54zM285 487h29q21 0 23 16l3 21q1 10 -3.5 13.5t-15.5 3.5h-29z" />
<glyph unicode="&#xb4;" horiz-adv-x="353" d="M151 589l132 191l104 -57l-135 -191z" />
<glyph unicode="&#x2000;" horiz-adv-x="392" />
<glyph unicode="&#x2001;" horiz-adv-x="784" />
<glyph unicode="&#x2002;" horiz-adv-x="392" />
<glyph unicode="&#x2003;" horiz-adv-x="784" />
<glyph unicode="&#x2004;" horiz-adv-x="261" />
<glyph unicode="&#x2005;" horiz-adv-x="196" />
<glyph unicode="&#x2006;" horiz-adv-x="130" />
<glyph unicode="&#x2007;" horiz-adv-x="130" />
<glyph unicode="&#x2008;" horiz-adv-x="98" />
<glyph unicode="&#x2009;" horiz-adv-x="156" />
<glyph unicode="&#x200a;" horiz-adv-x="43" />
<glyph unicode="&#x2010;" d="M80 206l17 141h301l-17 -141h-301z" />
<glyph unicode="&#x2011;" d="M80 206l17 141h301l-17 -141h-301z" />
<glyph unicode="&#x2012;" d="M80 206l17 141h301l-17 -141h-301z" />
<glyph unicode="&#x2013;" horiz-adv-x="515" d="M80 206l18 148h391l-18 -148h-391z" />
<glyph unicode="&#x2014;" horiz-adv-x="660" d="M80 206l18 148h549l-18 -148h-549z" />
<glyph unicode="&#x2018;" horiz-adv-x="271" d="M94 425q13 106 159 184l43 -63q-28 -18 -45 -42q17 -8 21.5 -28.5t-0.5 -50.5q-7 -53 -23 -66.5t-77 -13.5q-60 0 -72.5 14t-5.5 66z" />
<glyph unicode="&#x2019;" horiz-adv-x="269" d="M93 401q27 18 44 42q-17 8 -21 28.5t1 50.5q6 53 22 66.5t77 13.5q60 0 72.5 -14t6.5 -66q-13 -106 -160 -184z" />
<glyph unicode="&#x201c;" horiz-adv-x="459" d="M94 425q13 106 159 184l43 -63q-28 -18 -45 -42q17 -8 21.5 -28.5t-0.5 -50.5q-7 -53 -23 -66.5t-77 -13.5q-60 0 -72.5 14t-5.5 66zM290 425q13 106 159 184l43 -63q-28 -18 -45 -42q17 -8 21.5 -28.5t-0.5 -50.5q-7 -53 -23 -66.5t-77 -13.5q-60 0 -72.5 14t-5.5 66z " />
<glyph unicode="&#x201d;" horiz-adv-x="461" d="M91 396q26 16 44 42q-17 8 -21 28.5t1 50.5q7 53 23 66.5t77 13.5q60 0 72 -13.5t6 -66.5q-13 -106 -160 -184zM287 396q26 16 44 42q-17 8 -21 28.5t1 50.5q7 53 23 66.5t77 13.5q60 0 72 -13.5t6 -66.5q-13 -106 -160 -184z" />
<glyph unicode="&#x2022;" horiz-adv-x="448" d="M117 324q8 58 53 99t102 41q58 0 94 -41t29 -99q-7 -57 -53 -97.5t-104 -40.5q-57 0 -92.5 40.5t-28.5 97.5z" />
<glyph unicode="&#x2026;" horiz-adv-x="702" d="M58 80q7 54 24 68.5t77 14.5q61 0 75 -14.5t7 -68.5q-6 -53 -24 -68.5t-79 -15.5q-60 0 -73 15.5t-7 68.5zM259 80q7 54 24.5 68.5t79.5 14.5q60 0 74 -14.5t7 -68.5q-6 -52 -24 -68t-78 -16q-62 0 -75.5 15.5t-7.5 68.5zM463 80q7 54 24 68.5t78 14.5t75 -14.5t7 -68.5 q-6 -53 -24 -68.5t-79 -15.5t-74 15.5t-7 68.5z" />
<glyph unicode="&#x202f;" horiz-adv-x="156" />
<glyph unicode="&#x205f;" horiz-adv-x="196" />
<glyph unicode="&#x20ac;" horiz-adv-x="662" d="M64 244l10 75h80l4 37h-80l9 75h83q28 142 91.5 195.5t209.5 53.5q125 3 235 -12l-13 -103q-156 8 -228 3q-51 -4 -71 -31t-31 -106h211l-9 -75h-211l-4 -37h211l-10 -75h-211q-6 -85 17 -112.5t86 -27.5q101 0 193 7l-11 -96q-123 -23 -215 -23q-61 0 -100.5 4.5 t-75.5 19.5t-55 42.5t-28.5 73.5t-5.5 112h-81z" />
<glyph unicode="&#x2122;" horiz-adv-x="566" d="M131 627l7 49h176l-7 -49h-59l-21 -173h-58l21 173h-59zM312 454l28 222h63l32 -104l62 104h61l-28 -222h-55l13 105l-40 -68h-44l-21 68l-13 -105h-58z" />
<glyph unicode="&#xe000;" horiz-adv-x="500" d="M0 0v500h500v-500h-500z" />
</font>
</defs>
</svg>
